Coordinates
version=1
nRows=24
nColumns=19
inDegrees=yes

Units are S.I. units (second, meters, Newtons, ...)
If the header above contains a line with 'inDegrees', this indicates whether rotational values are in degrees (yes) or radians (no).

endheader
time	pelvis_tilt	pelvis_list	pelvis_rotation	pelvis_tx	pelvis_ty	pelvis_tz	hip_flexion_r	hip_adduction_r	hip_rotation_r	knee_angle_r	knee_angle_r_beta	ankle_angle_r	hip_flexion_l	hip_adduction_l	hip_rotation_l	knee_angle_l	knee_angle_l_beta	ankle_angle_l
     16.62666667	     -4.49204776	      9.90235354	      5.93913342	      2.41186726	      1.02429779	      1.00670502	    -15.36298187	     -9.54852250	    -10.90167417	     71.89480568	      1.25480107	    -22.12281970	     30.15345323	     13.42185823	    -19.34383438	     19.41941741	      0.33893277	     -2.50881699
     16.63333333	     -4.43360527	     10.41592548	      6.58604440	      2.41046693	      1.01958377	      1.00654070	    -13.90475142	    -10.48963704	    -11.33480547	     76.16928141	      1.32940475	    -21.50849403	     30.24476167	     13.79805396	    -20.09353188	     22.50564641	      0.39279763	     -1.21913956
     16.64000000	     -3.74139410	     11.17713223	      7.25490520	      2.40901670	      1.01533177	      1.00650973	    -13.21153406	    -11.61509989	    -11.89230945	     80.18968386	      1.39957401	    -20.69133874	     29.47688561	     14.44174466	    -20.41726383	     25.57449819	      0.44635920	      0.47172274
     16.64666667	     -4.04564098	     11.40942962	      7.76091002	      2.40717668	      1.00988002	      1.00674938	    -11.01158370	    -12.30340067	    -11.68239556	     84.37214078	      1.47257165	    -19.64472155	     29.88165142	     14.48682919	    -20.62958112	     28.94374650	      0.50516367	      2.30727411
     16.65333333	     -3.96420781	     11.77741108	      8.21509892	      2.40528707	      1.00488002	      1.00718291	     -9.19846307	    -13.07180435	    -11.41444255	     88.31805285	      1.54144081	    -18.50692326	     29.68742753	     14.73224734	    -20.41578993	     32.10610829	      0.56035730	      4.51964477
     16.66000000	     -3.86826040	     12.05772698	      8.56495009	      2.40316503	      1.00002524	      1.00766340	     -7.22142424	    -13.77940571	    -10.91178396	     92.11713598	      1.60774732	    -17.32130265	     29.36129291	     14.93355158	    -19.95094656	     35.09137725	      0.61246007	      6.98510115
     16.66666667	     -3.27809227	     12.51488157	      8.84067874	      2.40099183	      0.99604304	      1.00819631	     -5.75359711	    -14.62130242	    -10.38074502	     95.61187077	      1.66874195	    -16.13716561	     28.27308448	     15.35638056	    -19.22473735	     37.71743164	      0.65829337	      9.58601419
     16.67333333	     -3.89817613	     12.23421247	      8.93515675	      2.39836194	      0.99111477	      1.00889610	     -2.37761045	    -14.76293889	     -9.04675888	     99.16429085	      1.73074338	    -15.04421562	     28.56991867	     15.06151817	    -18.49344816	     40.35290026	      0.70429097	     12.16311640
     16.68000000	     -3.87186426	     12.21586507	      8.94963698	      2.39577865	      0.98738832	      1.00966485	      0.27835566	    -15.10184834	     -7.80162390	    102.32753026	      1.78595232	    -14.04120867	     27.86967718	     15.02470596	    -17.65878931	     42.47989447	      0.74141402	     14.77324438
     16.68666667	     -3.84969136	     12.10889281	      8.83322813	      2.39317863	      0.98429865	      1.01044652	      3.11701497	    -15.31029040	     -6.35784477	    105.19098102	      1.83592896	    -13.08861789	     26.96852941	     14.88720546	    -16.83239368	     44.20614967	      0.77154286	     17.25511496
     16.69333333	     -3.83443985	     11.93738423	      8.60964832	      2.39059094	      0.98181667	      1.01124977	      6.11353106	    -15.41938593	     -4.78559324	    107.73677054	      1.88036137	    -12.24804986	     25.85920258	     14.65083941	    -16.08091963	     45.52085886	      0.79448887	     19.55591563
     16.70000000	     -3.68458202	     11.73433728	      8.24554409	      2.38816344	      0.98014434	      1.01208054	      9.05353479	    -15.40604010	     -3.11745057	    109.90391467	      1.91818517	    -11.42193694	     24.35999899	     14.31779349	    -15.44762188	     46.38200433	      0.80951869	     21.63629256
     16.70666667	     -3.62403645	     11.45477418	      7.83507200	      2.38591266	      0.97902297	      1.01282927	     12.15362029	    -15.26956061	     -1.44649505	    111.70303548	      1.94958575	    -10.62143160	     22.72150081	     13.90462934	    -14.87599595	     46.80710707	      0.81693813	     23.45599849
     16.71333333	     -3.53905064	     11.12072972	      7.38223119	      2.38392590	      0.97855099	      1.01350645	     15.22108204	    -14.98392992	      0.17521698	    113.09872791	      1.97394518	     -9.78178319	     20.82349818	     13.42038627	    -14.38143034	     46.80991113	      0.81698707	     25.00020049
     16.72000000	     -3.50307879	     10.71580262	      6.88775723	      2.38225129	      0.97861754	      1.01401637	     18.30395489	    -14.57050492	      1.70435976	    114.09317848	      1.99130162	     -8.90190846	     18.75585714	     12.86924851	    -13.97334763	     46.39960231	      0.80982583	     26.23676013
     16.72666667	     -3.43402272	     10.17841773	      6.91725586	      2.38091338	      0.97950465	      1.01370790	     21.03121606	    -14.18050988	      2.48195857	    114.58547103	      1.99989374	     -7.98717310	     16.40016064	     12.42457716	    -12.87273295	     45.61146318	      0.79607021	     26.95338593
     16.73333333	     -3.66110517	      9.68657998	      5.98038919	      2.37992279	      0.98010531	      1.01433314	     24.39327860	    -13.40467187	      4.19332601	    114.89165834	      2.00523772	     -6.95341172	     14.29054734	     11.66868480	    -13.18336169	     44.49485532	      0.77658173	     27.63923180
     16.74000000	     -3.97274985	      8.98847899	      6.03573631	      2.37934048	      0.98147563	      1.01356623	     27.30072704	    -12.87468701	      4.61757540	    114.64564780	      2.00094403	     -5.94730652	     12.04442759	     11.07206211	    -12.27804593	     43.10843572	      0.75238414	     27.70517549
     16.74666667	     -4.40743530	      8.37756964	      5.45607241	      2.37908891	      0.98281270	      1.01342186	     30.43604978	    -12.05805250	      5.57779263	    114.16703091	      1.99259059	     -4.86103428	      9.85759606	     10.42358524	    -12.17556235	     41.43065026	      0.72310126	     27.43784188
     16.75333333	     -5.02358129	      7.57420383	      5.49205679	      2.37927948	      0.98453910	      1.01237119	     33.35938393	    -11.41122467	      5.67383179	    113.23954519	      1.97640291	     -3.81319739	      7.75867302	      9.73853792	    -11.39747079	     39.59982109	      0.69114726	     26.67472730
     16.76000000	     -5.76886515	      6.72828198	      5.52093792	      2.37995332	      0.98643498	      1.01117724	     36.22999884	    -10.77195899	      5.57497970	    111.97389357	      1.95431312	     -2.79509762	      5.73861252	      8.98387543	    -10.76282544	     37.59141055	      0.65609388	     25.45718531
     16.76666667	     -5.81464986	      5.81783792	      5.31942353	      2.38119660	      0.98951897	      1.01014783	     38.09129268	     -9.92467061	      5.33684409	    110.30557847	      1.92519553	     -1.75538083	      2.85295563	      8.07351441	    -10.33102189	     35.23198103	      0.61491407	     23.56046845
     16.77333333	     -6.73711227	      4.86196380	      5.43031213	      2.38253501	      0.99178398	      1.00881179	     40.74946421	     -9.27495805	      4.81084951	    108.42620058	      1.89239420	     -0.88624550	      1.04724464	      7.17169231	     -9.76681245	     33.04230588	      0.57669703	     21.17523823
     16.78000000	     -6.74787547	      3.65476664	      5.46362484	      2.38449368	      0.99546485	      1.00742035	     42.07048990	     -8.38376027	      3.86580895	    106.09178962	      1.85165104	     -0.02214530	     -1.76612744	      5.87568640	     -9.38007652	     30.62813544	      0.53456181	     18.22540149
